<?xml version="1.0" standalone="no"?>
<!DOCTYPE svg PUBLIC "-//W3C//DTD SVG 20010904//EN"
 "http://www.w3.org/TR/2001/REC-SVG-20010904/DTD/svg10.dtd">
<svg version="1.0" xmlns="http://www.w3.org/2000/svg"
 width="990.000000pt" height="990.000000pt" viewBox="0 0 990.000000 990.000000"
 preserveAspectRatio="xMidYMid meet">
<metadata>
Created by potrace 1.11, written by Peter Selinger 2001-2013
</metadata>
<g transform="translate(0.000000,990.000000) scale(0.100000,-0.100000)"
fill="#000000" stroke="none">
<path d="M2767 5743 c-3 -2092 -5 -2306 -20 -2392 -47 -266 -141 -470 -271
-589 -159 -144 -454 -217 -781 -192 -257 20 -423 87 -566 230 -71 71 -93 101
-131 180 -26 52 -56 124 -68 160 -48 148 -80 444 -80 738 l0 132 -400 0 -400
0 0 -279 c0 -296 9 -421 41 -591 43 -223 144 -472 255 -627 121 -170 301 -324
494 -422 301 -153 583 -207 1035 -198 413 8 631 57 915 203 148 76 270 165
365 266 230 242 351 518 405 921 7 52 10 857 10 2418 l0 2339 -400 0 -399 0
-4 -2297z"/>
<path d="M4890 5035 l0 -3005 400 0 400 0 0 1050 0 1049 496 463 c273 255 499
464 503 465 3 1 492 -678 1086 -1510 l1081 -1512 497 -3 c495 -2 497 -2 497
18 0 12 -571 798 -1300 1790 -715 972 -1300 1771 -1300 1774 0 3 567 548 1260
1211 693 664 1260 1208 1260 1211 0 2 -234 4 -519 4 l-520 0 -663 -652 c-365
-359 -922 -906 -1238 -1217 -316 -311 -702 -691 -857 -845 l-283 -281 0 1498
0 1497 -400 0 -400 0 0 -3005z"/>
</g>
</svg>
