<?xml version="1.0" standalone="no"?>
<!DOCTYPE svg PUBLIC "-//W3C//DTD SVG 20010904//EN"
 "http://www.w3.org/TR/2001/REC-SVG-20010904/DTD/svg10.dtd">
<svg version="1.0" xmlns="http://www.w3.org/2000/svg"
 width="1200.000000pt" height="1200.000000pt" viewBox="0 0 1200.000000 1200.000000"
 preserveAspectRatio="xMidYMid meet">
<metadata>
Created by potrace 1.11, written by Peter Selinger 2001-2013
</metadata>
<g transform="translate(0.000000,1200.000000) scale(0.100000,-0.100000)"
fill="#000000" stroke="none">
<path d="M3049 7228 c0 -1272 -2 -2347 -4 -2388 -4 -92 -14 -219 -20 -251 -3
-13 -7 -40 -10 -61 -12 -76 -72 -230 -115 -293 -85 -124 -207 -207 -363 -247
-121 -32 -403 -31 -531 0 -247 61 -418 220 -504 467 -22 62 -41 137 -48 190
-2 17 -7 44 -9 60 -3 17 -8 59 -11 95 -3 36 -7 81 -9 100 -2 19 -4 132 -4 251
l-1 217 -661 0 -660 0 2 -387 c2 -346 5 -424 23 -566 10 -70 26 -157 51 -259
20 -84 72 -220 126 -329 151 -301 345 -524 621 -709 161 -108 397 -218 568
-264 166 -45 270 -68 365 -80 28 -3 53 -8 56 -9 29 -18 553 -27 714 -13 236
21 441 61 617 119 100 33 289 121 351 163 21 14 50 32 65 40 89 46 329 257
422 371 74 91 264 415 244 415 -4 0 -2 6 3 13 18 22 62 150 87 252 23 98 30
130 41 210 4 22 8 51 10 64 2 13 9 69 15 125 6 56 14 115 18 131 3 17 7 1122
9 2458 l4 2427 -731 0 -730 0 -1 -2312z"/>
<path d="M5790 6215 l0 -3325 730 0 730 0 0 1073 1 1072 419 423 418 423 147
-218 c80 -120 253 -377 383 -571 130 -194 244 -364 252 -377 8 -13 138 -208
289 -432 150 -224 422 -630 604 -900 l329 -493 899 0 899 0 0 28 c0 18 -25 63
-75 132 -41 58 -111 158 -157 223 -46 64 -89 125 -96 135 -13 17 -297 418
-406 572 -32 47 -71 101 -85 121 -14 20 -62 88 -107 150 -130 185 -214 302
-304 429 -47 66 -114 161 -150 212 -36 51 -123 174 -195 275 -194 273 -354
499 -406 572 -217 310 -664 937 -671 939 -4 2 -8 8 -8 13 0 5 -34 57 -76 115
l-77 106 54 55 c115 117 541 548 1248 1261 405 409 861 870 1014 1025 l278
282 -910 3 -909 2 -60 -62 c-33 -35 -79 -83 -102 -108 -35 -38 -192 -204 -330
-350 -129 -137 -335 -355 -390 -413 -36 -38 -83 -88 -105 -112 -162 -171 -318
-336 -345 -365 -18 -19 -90 -96 -160 -170 -70 -74 -147 -155 -170 -180 -63
-67 -300 -319 -340 -361 -19 -20 -96 -101 -170 -180 -74 -79 -169 -180 -211
-224 -42 -44 -109 -114 -148 -155 l-71 -75 0 1378 0 1377 -730 0 -730 0 0
-3325z"/>
</g>
</svg>
